<svg id="admin_panel_settings" xmlns="http://www.w3.org/2000/svg" width="36.05" height="40.05" viewBox="0 0 36.05 40.05">
  <path id="admin_panel_settings_FILL0_wght400_GRAD0_opsz48" d="M34.55,34.5a2.914,2.914,0,0,0,2.2-.95,3.161,3.161,0,0,0,.9-2.25,3.073,3.073,0,0,0-3.1-3.1,3.162,3.162,0,0,0-2.25.9,2.914,2.914,0,0,0-.95,2.2,3.245,3.245,0,0,0,3.2,3.2Zm-.05,6.25a6.419,6.419,0,0,0,3-.7,6.582,6.582,0,0,0,2.3-2A12.147,12.147,0,0,0,37.2,37a10.34,10.34,0,0,0-2.7-.35,10.625,10.625,0,0,0-2.725.35A11.014,11.014,0,0,0,29.2,38.05a6.656,6.656,0,0,0,2.275,2A6.378,6.378,0,0,0,34.5,40.75ZM24,44a19.326,19.326,0,0,1-11.45-7.825A23.564,23.564,0,0,1,8,21.9V9.95l16-6,16,6v13.5a12.269,12.269,0,0,0-1.5-.625A8.216,8.216,0,0,0,37,22.45V12.05L24,7.25l-13,4.8V21.9a19.424,19.424,0,0,0,1.225,7,21.527,21.527,0,0,0,3.125,5.625,19.493,19.493,0,0,0,4.2,4.025A17.212,17.212,0,0,0,24,40.85a7.867,7.867,0,0,0,.9,1.35,14.51,14.51,0,0,0,1,1.15,3.891,3.891,0,0,1-.95.375q-.5.125-.95.275Zm10.65,0a9.432,9.432,0,0,1-9.4-9.35A9.142,9.142,0,0,1,28,27.975a9.326,9.326,0,0,1,13.275,0A9.1,9.1,0,0,1,44.05,34.65,9.476,9.476,0,0,1,34.65,44ZM24,24.05Z" transform="translate(-8 -3.95)"/>
</svg>
