<svg id="groups" xmlns="http://www.w3.org/2000/svg" width="40" height="20" viewBox="0 0 40 20">
  <path id="groups_FILL0_wght400_GRAD0_opsz48" d="M0,32V29.792a2.974,2.974,0,0,1,1.75-2.625,9,9,0,0,1,4.5-1q.542,0,1,.021a6.86,6.86,0,0,1,.917.1,6.784,6.784,0,0,0-.667,3V32Zm10,0V29.292a4.976,4.976,0,0,1,2.771-4.375A13.891,13.891,0,0,1,20,23.25a13.869,13.869,0,0,1,7.25,1.667A4.98,4.98,0,0,1,30,29.292V32Zm22.5,0V29.292a7.963,7.963,0,0,0-.146-1.562,6.245,6.245,0,0,0-.479-1.437,6.86,6.86,0,0,1,.917-.1q.458-.021.958-.021a8.949,8.949,0,0,1,4.542,1A2.978,2.978,0,0,1,40,29.792V32ZM20,25.75a12.575,12.575,0,0,0-5.417,1q-2.083,1-2.083,2.542V29.5h15v-.25q0-1.5-2.062-2.5A12.547,12.547,0,0,0,20,25.75ZM6.25,24.917a2.81,2.81,0,0,1-2.062-.854,2.917,2.917,0,0,1,0-4.125,2.81,2.81,0,0,1,2.063-.854,2.917,2.917,0,1,1,0,5.833Zm27.5,0a2.916,2.916,0,1,1,2.062-.854A2.81,2.81,0,0,1,33.75,24.917ZM20,22a4.979,4.979,0,0,1-5-5,4.8,4.8,0,0,1,1.458-3.562A4.857,4.857,0,0,1,20,12a4.911,4.911,0,0,1,5,5,4.857,4.857,0,0,1-1.437,3.542A4.8,4.8,0,0,1,20,22Zm0-7.5a2.447,2.447,0,0,0-1.771.708A2.51,2.51,0,0,0,20,19.5a2.392,2.392,0,0,0,1.792-.729A2.49,2.49,0,0,0,20,14.5ZM20,29.5ZM20,17Z" transform="translate(0 -12)"/>
</svg>
