<svg id="inventory" xmlns="http://www.w3.org/2000/svg" width="40" height="40" viewBox="0 0 40 40">
  <path id="inventory_2_FILL0_wght400_GRAD0_opsz48" d="M6,40.9V16.3a2.15,2.15,0,0,1-1.35-1A3.263,3.263,0,0,1,4,13.35V7a2.906,2.906,0,0,1,.9-2.075A2.841,2.841,0,0,1,7,4H41a2.869,2.869,0,0,1,2.075.925A2.869,2.869,0,0,1,44,7v6.35a3.263,3.263,0,0,1-.65,1.95,2.15,2.15,0,0,1-1.35,1V40.9a3.035,3.035,0,0,1-.925,2.125A2.8,2.8,0,0,1,39,44H9a2.776,2.776,0,0,1-2.1-.975A3.076,3.076,0,0,1,6,40.9ZM9,16.35V41H39V16.35Zm32-3V7H7v6.35ZM18,26.85H30v-3H18ZM9,41v0Z" transform="translate(-4 -4)"/>
</svg>
