<svg id="payments" xmlns="http://www.w3.org/2000/svg" width="40" height="29.091" viewBox="0 0 40 29.091">
  <path id="payments_FILL0_wght400_GRAD0_opsz48" d="M24.727,25.273a5.432,5.432,0,0,1-5.455-5.455,5.432,5.432,0,0,1,5.455-5.455,5.432,5.432,0,0,1,5.455,5.455,5.432,5.432,0,0,1-5.455,5.455ZM10.182,31.636a2.716,2.716,0,0,1-2.727-2.727V10.727A2.716,2.716,0,0,1,10.182,8H39.273A2.716,2.716,0,0,1,42,10.727V28.909a2.716,2.716,0,0,1-2.727,2.727Zm4.545-2.727h20a4.5,4.5,0,0,1,4.545-4.545V15.273a4.5,4.5,0,0,1-4.545-4.545h-20a4.5,4.5,0,0,1-4.545,4.545v9.091a4.5,4.5,0,0,1,4.545,4.545Zm21.818,8.182H4.727A2.63,2.63,0,0,1,2.8,36.3,2.63,2.63,0,0,1,2,34.364V13.455H4.727V34.364H36.545ZM10.182,28.909v0Z" transform="translate(-2 -8)"/>
</svg>
