<svg id="summarize" xmlns="http://www.w3.org/2000/svg" width="36" height="36" viewBox="0 0 36 36">
  <path id="summarize_FILL0_wght400_GRAD0_opsz48" d="M15.45,16.95a1.538,1.538,0,1,0-1.05-.45A1.439,1.439,0,0,0,15.45,16.95Zm0,8.55a1.538,1.538,0,1,0-1.05-.45A1.439,1.439,0,0,0,15.45,25.5Zm0,8.55a1.538,1.538,0,1,0-1.05-.45A1.439,1.439,0,0,0,15.45,34.05ZM9,42a2.878,2.878,0,0,1-2.1-.9A2.878,2.878,0,0,1,6,39V9a2.878,2.878,0,0,1,.9-2.1A2.878,2.878,0,0,1,9,6H32.1L42,15.9V39a3.076,3.076,0,0,1-3,3Zm0-3H39V17.55H30.45V9H9ZM9,9V9Z" transform="translate(-6 -6)"/>
</svg>
